<?xml version="1.0" encoding="UTF-8" standalone="no"?>
<!-- Created with Inkscape (http://www.inkscape.org/) -->

<svg
   width="64.784645mm"
   height="66.768715mm"
   viewBox="0 0 64.784645 66.768715"
   version="1.1"
   id="svg1"
   xmlns="http://www.w3.org/2000/svg"
   xmlns:svg="http://www.w3.org/2000/svg">
  <defs
     id="defs1" />
  <g
     id="layer1"
     transform="translate(-4.9529637,-4.9074784)">
    <g
       id="g4"
       style="fill:#c8b7b7"
       transform="translate(-40.33663,-61.676009)">
      <path
         style="fill:#c8b7b7;stroke-width:0.264583"
         d="M 86.962813,66.613383 V 82.80669 h 8.924721 v -9.660779 z"
         id="path1" />
      <path
         style="fill:#c8b7b7;stroke-width:0.261131"
         d="M 87.223049,66.613383 V 82.80669 H 78.5297 v -9.660779 z"
         id="path2" />
    </g>
    <g
       id="g3"
       style="fill:#c8b7b7"
       transform="translate(-40.33663,-61.676009)">
      <path
         style="fill:#c8b7b7;stroke-width:0.264583"
         d="m 69.900597,66.583487 v 16.193307 h 8.924721 v -9.660779 z"
         id="path1-2" />
      <path
         style="fill:#c8b7b7;stroke-width:0.261131"
         d="M 70.030715,66.583487 V 82.776794 H 61.337366 V 73.116015 Z"
         id="path2-4" />
    </g>
    <g
       id="g5"
       style="fill:#c8b7b7"
       transform="translate(-40.33663,-61.676009)">
      <path
         style="fill:#c8b7b7;stroke-width:0.264583"
         d="M 45.293663,91.448676 H 61.48697 v -8.924721 h -9.660779 z"
         id="path1-2-1" />
      <path
         style="fill:#c8b7b7;stroke-width:0.261131"
         d="M 45.293663,91.310665 H 61.48697 v 8.693345 h -9.660779 z"
         id="path2-4-5" />
    </g>
    <g
       id="g6"
       style="fill:#c8b7b7"
       transform="translate(-40.33663,-61.676009)">
      <path
         style="fill:#c8b7b7;stroke-width:0.264583"
         d="M 45.289594,108.80465 H 61.482901 V 99.879926 H 51.822122 Z"
         id="path1-2-1-2" />
      <path
         style="fill:#c8b7b7;stroke-width:0.261131"
         d="m 45.289594,108.66664 h 16.193307 v 8.69335 h -9.660779 z"
         id="path2-4-5-3" />
    </g>
    <g
       id="g7"
       style="fill:#c8b7b7"
       transform="translate(-40.33663,-61.676009)">
      <path
         style="fill:#c8b7b7;stroke-width:0.264583"
         d="M 70.107161,133.3522 V 117.1589 H 61.18244 v 9.66078 z"
         id="path1-2-1-2-5" />
      <path
         style="fill:#c8b7b7;stroke-width:0.261131"
         d="m 69.96915,133.3522 v -16.1933 h 8.693349 v 9.66078 z"
         id="path2-4-5-3-7" />
    </g>
    <g
       id="g10"
       style="fill:#c8b7b7"
       transform="translate(-40.33663,-61.676009)">
      <g
         id="g8"
         style="fill:#c8b7b7">
        <path
           style="fill:#c8b7b7;stroke-width:0.264583"
           d="m 87.433881,133.31258 v -16.1933 H 78.50916 v 9.66078 z"
           id="path1-2-1-2-5-7" />
      </g>
      <g
         id="g9"
         style="fill:#c8b7b7">
        <path
           style="fill:#c8b7b7;stroke-width:0.261131"
           d="m 87.336292,133.31258 v -16.1933 h 8.693349 v 9.66078 z"
           id="path2-4-5-3-7-9" />
      </g>
    </g>
    <g
       id="g11"
       transform="matrix(1.5620659,0,0,1.3994959,-94.157189,-106.04178)"
       style="fill:#c8b7b7">
      <path
         style="fill:#c8b7b7;stroke-width:0.148554"
         d="m 104.92182,112.59857 h -9.166926 v 4.96991 h 5.468906 z"
         id="path1-2-1-2-5-7-3" />
      <path
         style="fill:#c8b7b7;stroke-width:0.146615"
         d="m 104.92182,112.73658 h -9.166926 v -4.84107 h 5.468906 z"
         id="path2-4-5-3-7-9-3" />
    </g>
    <g
       id="g12"
       transform="matrix(1.5620659,0,0,1.397605,-94.377733,-96.942346)"
       style="fill:#c8b7b7">
      <path
         style="fill:#c8b7b7;stroke-width:0.148554"
         d="m 104.98681,87.42947 h -9.166926 v 4.969912 h 5.468906 z"
         id="path1-2-1-2-5-7-3-1" />
      <path
         style="fill:#c8b7b7;stroke-width:0.146615"
         d="m 104.98681,87.521477 h -9.166926 v -4.841068 h 5.468906 z"
         id="path2-4-5-3-7-9-3-9" />
    </g>
  </g>
</svg>
